<svg xmlns="http://www.w3.org/2000/svg" xmlns:xlink="http://www.w3.org/1999/xlink" preserveAspectRatio="xMidYMid" width="41" height="34" viewBox="0 0 41 34">
  <defs>
    <style>
      .cls-1 {
        fill: #fff;
        filter: url(#drop-shadow-1);
        fill-rule: evenodd;
      }
    </style>

    <filter id="drop-shadow-1" filterUnits="userSpaceOnUse">
      <feOffset dy="5" in="SourceAlpha"/>
      <feGaussianBlur result="dropBlur"/>
      <feFlood flood-opacity="0.05"/>
      <feComposite operator="in" in2="dropBlur" result="dropShadowComp"/>
      <feComposite in="SourceGraphic" result="shadowed"/>
    </filter>
  </defs>
  <path d="M39.000,31.500 L2.000,31.500 C0.895,31.500 -0.000,30.605 -0.000,29.500 L-0.000,8.500 C-0.000,7.395 0.895,6.500 2.000,6.500 L12.037,6.500 L14.111,4.500 C14.111,3.395 15.056,2.500 16.222,2.500 L24.778,2.500 C25.944,2.500 26.889,3.395 26.889,4.500 L28.963,6.500 L39.000,6.500 C40.105,6.500 41.000,7.395 41.000,8.500 L41.000,29.500 C41.000,30.605 40.105,31.500 39.000,31.500 ZM5.500,10.500 C4.672,10.500 4.000,11.172 4.000,12.000 C4.000,12.828 4.672,13.500 5.500,13.500 C6.328,13.500 7.000,12.828 7.000,12.000 C7.000,11.172 6.328,10.500 5.500,10.500 ZM20.500,8.500 C15.253,8.500 11.000,12.753 11.000,18.000 C11.000,23.247 15.253,27.500 20.500,27.500 C25.747,27.500 30.000,23.247 30.000,18.000 C30.000,12.753 25.747,8.500 20.500,8.500 ZM20.500,25.500 C16.358,25.500 13.000,22.142 13.000,18.000 C13.000,13.858 16.358,10.500 20.500,10.500 C24.642,10.500 28.000,13.858 28.000,18.000 C28.000,22.142 24.642,25.500 20.500,25.500 Z" class="cls-1"/>
</svg>
