<?xml version="1.0" encoding="utf-8"?>
<!-- Generator: Adobe Illustrator 19.1.0, SVG Export Plug-In . SVG Version: 6.00 Build 0)  -->
<!DOCTYPE svg PUBLIC "-//W3C//DTD SVG 1.1//EN" "http://www.w3.org/Graphics/SVG/1.1/DTD/svg11.dtd">
<svg version="1.1" id="Layer_1" xmlns="http://www.w3.org/2000/svg" xmlns:xlink="http://www.w3.org/1999/xlink" x="0px" y="0px"
	 viewBox="74 -24.4 303.6 303.5" style="enable-background:new 74 -24.4 303.6 303.5;" xml:space="preserve">
<style type="text/css">
	.st0{fill:#43424C;}
	.st1{fill:#E05E62;}
	.st2{fill:#8BCABA;}
	.st3{fill:#BEE1EF;}
	.st4{opacity:0.1;}
	.st5{fill:#FFFFFF;}
	.st6{fill:none;enable-background:new    ;}
</style>
<g>
	<circle class="st0" cx="225.8" cy="127.4" r="151.8"/>
	<g>
		<path class="st1" d="M160,156.2l13,13l-13,13l-13-13L160,156.2z"/>
		<path class="st2" d="M225.8,156.2l13,13l-13,13l-13-13L225.8,156.2z"/>
		<path class="st3" d="M291.5,156.2l13,13l-13,13l-13-13L291.5,156.2z"/>
	</g>
	<g>
		<path class="st4" d="M335.7,122.7c-3.9,7.4-8,13-12.3,16.9c-4.2,3.9-9,5.9-14.2,5.9c-4.2,0-7.1-1.3-8.8-4c-0.4-0.9-0.7-1.7-1-2.5
			c-6.1,4.9-11.6,7.5-16.4,7.7h-0.6c-3.8,0-7-1.4-9.5-4.1c-1.4-1.5-2.4-3.2-2.9-5.1c-5.3,4.3-10.6,6.7-15.8,7.1H254h-1.1
			c-3.9,0-6.7-1.3-8.5-4c-1.5-2.1-2-4.8-1.5-8.2c0.4-3.2,1.7-6.9,3.9-11.4c2.4-4.9,3.4-8.3,3.1-10.1c-0.4-1.9-2.2-3.9-5.4-6
			c-1,2.2-2.2,4.9-3.7,8.2c0,0.1-0.1,0.2-0.1,0.3c0,0.1,0,0.1,0,0.2c-7.4,19.4-11.3,21-25.7,18.7c-1.5,1.7-3.4,3.5-5.6,5.4
			c-5.1,4.1-9.7,6.6-13.8,7.5c-1.5,0.2-2.5,0.2-3,0.2c-3.4,0-6.1-1.2-8.2-3.5c-1.1-1.2-1.9-2.6-2.5-4.2c-1.6,1.9-3.3,3.6-5.3,5.2
			c-6.4,5.3-13,8.5-19.7,9.6c-1.6,0.2-3.2,0.4-4.9,0.4c-7,0-13.3-2.3-18.9-7c-6.7-5.6-10-14.3-9.7-26.2c0.2-11,3.4-22.5,9.3-34.5
			c6-12.2,13.5-21.6,22.5-28.3c6.8-5.1,13-8.2,18.4-9.4c3.1-0.5,5.6-0.5,7.7-0.1c2.6,0.7,4.7,1.8,6.2,3.5c3.7,3.8,4.6,9.5,2.6,17
			c-1.7,6.7-5.6,13.7-11.7,21.2c-0.8,0.9-1.8,1.4-3.1,1.6c-1.2,0.1-2.3-0.2-3.2-0.9c-1-0.8-1.6-1.9-1.7-3.1
			c-0.1-1.2,0.2-2.3,1.1-3.2c5.2-6.4,8.6-12.4,10-17.9c1.2-4.2,1.1-7-0.5-8.6c-1.1-1.2-2.9-1.4-5.6-0.7c-4.1,0.7-9.1,3.2-15.1,7.7
			c-7.6,5.7-14.2,13.9-19.7,24.7c-5.5,10.8-8.3,21.2-8.6,31.3c-0.2,9,2,15.4,6.5,19.1c5.1,4.2,10.7,5.7,16.8,4.7
			c5.2-0.9,10.5-3.6,15.8-8c5.3-4.4,8.7-10.2,13.1-17.4c0.1-0.2,0.3-0.5,0.4-0.7c2-3.9,4.8-7.6,8.3-11c0.9-0.9,2-1.3,3.2-1.2
			c1.1-2.7,2.7-5.1,5-7c5.1-4.6,10-6.1,14.8-4.6c4.5,1.6,7.3,5.2,8.3,11c0.9,5,0.1,10.4-2.4,16.1c-0.3,0.8-0.6,1.5-0.9,1.9
			c4.8,0.6,5.7-2.5,7.7-5.4c2.8-5.3,5.5-11.5,8.5-18.3c-0.4-0.7-0.7-1.3-1-2c-0.9-2.4-0.7-4.7,0.5-7c0.8-1.6,2-2.7,3.6-3.3
			c1.6-0.6,3.1-0.6,4.5,0.1c2.4,1.1,3.5,3.2,3.4,6.5c0,0.6-0.2,1.6-0.5,3.1c6.3,3.8,9.9,8.1,10.7,12.7c0.7,3.7-0.7,8.8-3.9,15.6
			c-5.7,12-1.1,11.7-1.1,11.7c3.2-0.2,6.9-2.7,10.9-6c3.5-2.8,6.5-6.1,9.1-10c1.2-2.1,2.5-4.2,4.2-6.5c4.4-5.7,8.9-10.3,13.5-13.6
			c3.8-2.7,7.8-4.4,12-5.1c4.2-0.6,7.7,0,10.6,1.8c3.9,2.5,5.4,6.3,4.4,11.4c-0.2,1.1-0.7,2-1.6,2.6c-0.9,0.7-1.8,1-2.9,0.9
			c1.1,0.5,1.9,1.2,2.5,2.2c1.2,2.6-0.1,6.3-3.9,11.1c-0.4,0.6-1.3,1.6-2.6,3.1c-0.1,0.2-0.3,0.9-0.7,1.8c-0.4,1-0.6,1.7-0.8,2.2
			c-0.8,2.8,0.1,3.8,0.9,4c5.9,1.7,12.4-6,18.7-18c0.6-1.1,1.5-1.8,2.6-2.2c1.2-0.4,2.3-0.3,3.4,0.3c1.1,0.6,1.8,1.5,2.2,2.6
			C336.4,120.5,336.3,121.6,335.7,122.7z M195.8,116.7c-2.5,3.2-4.3,6.7-5.4,10.5c-1.1,4.2-1,7.1,0.4,8.7c0.8,0.4,1.8,0.5,2.9,0.4
			c2.7-0.6,6-2.5,10-5.6c0.2-0.2,0.6-0.5,1.1-0.9c0.5-0.4,0.8-0.7,0.9-0.9C200.6,125.8,197.3,121.7,195.8,116.7z M215.8,106.3
			c-0.4-2.3-1.2-3.7-2.5-4.1c-0.2-0.1-0.4-0.1-0.7-0.1c-1.4,0-3.2,1-5.4,2.9c-2.9,2.7-3.9,5.6-2.9,8.9c0.9,3.5,3.3,6.2,7.2,8.2
			C215.2,116.4,216.6,111.1,215.8,106.3z M311.9,111.8h0.4c-2.2-0.9-3.2-2.6-2.7-5c0.2-1.2,0.1-2-0.5-2.1c-0.7-0.4-1.6-0.6-2.7-0.6
			c-3.2,0-6.5,1.2-9.8,3.6c-3.9,2.8-7.8,6.8-11.8,11.9c-0.7,0.9-1.3,1.7-1.8,2.5c-0.1,0.4-0.3,0.7-0.5,1c-0.6,1.1-1.3,2.2-2.1,3.2
			c-1.2,2.3-1.9,4.5-2.1,6.4c-0.1,1.6,0.2,2.8,1,3.7c0.8,0.9,1.9,1.3,3.2,1.2c5-0.2,11.5-4.9,19.7-14c0.2-0.2,0.4-0.6,0.6-1.1
			c0.2-0.5,0.4-0.8,0.4-1.1l0.7-1.6c1-2.2,1.9-4,2.9-5.1C308.4,112.8,310.1,111.8,311.9,111.8z"/>
		<path class="st5" d="M286.7,217c-0.3,0.6-0.6,1.2-0.9,1.7c-0.3,0.5-0.6,1-0.8,1.4c-0.6,0.9-1.2,1.5-1.8,2c-0.3,0.2-0.7,0.4-1,0.5
			c-0.4,0.1-0.8,0.2-1.2,0.2h0c-0.3,0-0.5-0.1-0.8-0.2c-0.2-0.1-0.5-0.3-0.6-0.5c-0.3-0.4-0.5-0.9-0.6-1.5c0,0,0,0.1-0.1,0.1
			c-0.4,0.6-0.9,1-1.4,1.4c-0.5,0.4-1.1,0.6-1.7,0.6h0c-0.4,0-0.7-0.1-0.9-0.2s-0.5-0.3-0.6-0.6c-0.1-0.2-0.2-0.5-0.3-0.7
			c-0.1-0.3-0.1-0.5-0.1-0.8v0c-0.5,0.7-1,1.2-1.6,1.7c-0.6,0.4-1.2,0.6-1.9,0.6c-0.8,0-1.3-0.3-1.7-0.9c-0.2-0.3-0.3-0.6-0.4-1
			c0-0.2-0.1-0.5-0.1-0.8c0,0,0,0.1-0.1,0.1c-0.6,0.9-1.2,1.5-1.8,2c-0.3,0.2-0.7,0.4-1,0.5c-0.4,0.1-0.8,0.2-1.2,0.2h0
			c-0.3,0-0.5-0.1-0.8-0.2c-0.2-0.1-0.5-0.3-0.6-0.5c-0.3-0.4-0.5-0.9-0.6-1.4c-0.4,0.6-0.8,1-1.3,1.4c-0.5,0.4-1.1,0.6-1.8,0.6h0
			c-0.4,0-0.7-0.1-0.9-0.2c-0.3-0.1-0.5-0.3-0.6-0.6c-0.1-0.2-0.2-0.5-0.3-0.7c-0.1-0.2-0.1-0.5-0.1-0.8c-0.3,0.5-0.7,0.9-1,1.3
			c-0.6,0.6-1.1,1.1-1.7,1.5c-0.6,0.4-1.2,0.7-1.9,1c-0.2,0.1-0.5,0.2-0.7,0.3c-0.2,0.1-0.5,0.2-0.7,0.2l-0.3,1
			c-0.2,0.6-0.4,1.1-0.6,1.6c-0.2,0.5-0.5,1-0.8,1.5c-0.3,0.5-0.7,0.9-1.2,1.2c-0.5,0.3-1,0.5-1.7,0.5c-0.1,0-0.2,0-0.3,0
			c-0.1,0-0.2,0-0.3,0c-0.4,0-0.8-0.1-1.2-0.3c-0.3-0.2-0.6-0.4-0.8-0.6c-0.2-0.3-0.4-0.5-0.5-0.8c-0.1-0.3-0.2-0.6-0.2-0.9
			c0-0.2,0-0.3,0-0.4c0.1-0.6,0.2-1.1,0.5-1.5c0.3-0.4,0.6-0.7,1-0.9c0.4-0.2,0.9-0.4,1.5-0.5c0.6-0.1,1.1-0.2,1.8-0.4
			c0.3-0.1,0.7-0.1,1.1-0.2c0.4-0.1,0.7-0.1,1.1-0.2c0.1-0.4,0.3-0.8,0.4-1.2c0.1-0.4,0.3-0.8,0.4-1.2c-0.4,0.4-0.8,0.7-1.3,1
			c-0.5,0.2-0.9,0.3-1.4,0.3c-0.8,0-1.4-0.3-1.7-0.9c-0.2-0.3-0.3-0.6-0.4-1c-0.1-0.4-0.1-0.8-0.1-1.2c0-0.1,0-0.2,0-0.4
			c-0.2,0.5-0.5,0.9-0.8,1.4c-0.4,0.6-0.9,1.1-1.4,1.6c-0.5,0.4-1.1,0.6-1.8,0.6h0c-0.4,0-0.7-0.1-0.9-0.2c-0.3-0.1-0.5-0.3-0.6-0.6
			c-0.1-0.2-0.2-0.5-0.3-0.7c-0.1-0.2-0.1-0.5-0.1-0.7c-0.5,0.7-1,1.2-1.5,1.6c-0.3,0.2-0.7,0.4-1.1,0.5c-0.4,0.1-0.7,0.2-1.1,0.2h0
			c-0.6,0-1.1-0.2-1.5-0.6c-0.2-0.2-0.3-0.4-0.4-0.7c-0.1-0.3-0.2-0.6-0.2-1v0v-0.1v0c-0.5,0.7-1,1.3-1.6,1.7s-1.2,0.7-2,0.6
			c-0.8,0-1.3-0.3-1.7-0.9c-0.2-0.3-0.3-0.6-0.4-1c-0.1-0.4-0.1-0.8-0.1-1.2c0-0.4,0.1-0.9,0.2-1.4c0.1-0.6,0.3-1.1,0.4-1.8
			c0.2-0.6,0.4-1.3,0.7-1.9s0.6-1.3,0.9-1.8c0.5-0.8,1.1-1.6,1.7-2.1c0.6-0.6,1.4-0.9,2.2-0.9h0.2c0.4,0,0.7,0.1,1,0.3
			c0.3,0.2,0.6,0.4,0.9,0.7c0.1,0.1,0.1,0.2,0.2,0.2c0.1,0.1,0.1,0.2,0.2,0.2c0.1-0.2,0.2-0.5,0.3-0.7c0.1-0.2,0.2-0.5,0.3-0.7
			l0.6-1.7v0l0.2-0.5c0.1-0.2,0.2-0.5,0.3-0.8c0.1-0.3,0.3-0.7,0.4-1.1c0.1-0.1,0.2-0.3,0.3-0.3c0.1-0.1,0.3-0.1,0.4,0
			c0.1,0.1,0.3,0.2,0.3,0.3c0.1,0.1,0.1,0.3,0,0.4c-0.1,0.3-0.2,0.7-0.4,1c-0.1,0.3-0.2,0.6-0.3,0.9l-0.2,0.5l0,0l-0.6,1.7
			c-0.4,1.1-0.8,2.2-1.2,3.3c-0.4,1.1-0.8,2.3-1.2,3.4c-0.1,0.4-0.2,0.8-0.3,1.1s-0.2,0.7-0.3,1c-0.1,0.3-0.2,0.6-0.2,0.8
			c0,0.2-0.1,0.5-0.1,0.6v0.1c0,0.4,0.1,0.7,0.3,0.9c0.1,0.2,0.3,0.2,0.6,0.2h0c0.2,0,0.5,0,0.8-0.1c0.3-0.1,0.5-0.2,0.7-0.4
			c0.5-0.4,1-0.9,1.5-1.7c0.5-0.8,1-1.8,1.6-3c0-0.1,0.1-0.1,0.1-0.1c0-0.1,0.1-0.3,0.2-0.5c0.1-0.3,0.2-0.6,0.4-1.1
			c0.1-0.4,0.3-0.9,0.5-1.3c0.2-0.5,0.3-0.9,0.5-1.4c0-0.1,0-0.2,0.1-0.3c0-0.1,0.1-0.2,0.1-0.4l0.5-1.3c0-0.1,0.1-0.3,0.3-0.3
			c0.1-0.1,0.3-0.1,0.4,0c0.1,0,0.3,0.1,0.3,0.3c0.1,0.1,0.1,0.3,0,0.4l-0.4,1.3l-0.2,0.7c-0.2,0.6-0.4,1.1-0.6,1.5
			c-0.2,0.5-0.3,0.9-0.4,1.2c-0.1,0.3-0.2,0.7-0.3,0.9c-0.1,0.3-0.2,0.5-0.2,0.7c-0.1,0.4-0.3,0.8-0.4,1.1c-0.1,0.4-0.2,0.7-0.3,1
			c-0.1,0.3-0.1,0.6-0.2,0.8c0,0.2-0.1,0.5-0.1,0.6v0.1c0,0.2,0,0.3,0,0.5c0,0.2,0.1,0.3,0.2,0.4c0.1,0.2,0.3,0.3,0.6,0.3h0
			c0.4,0,0.8-0.2,1.2-0.5c0.4-0.3,0.7-0.7,1-1.2c0.4-0.5,0.7-1.1,1-1.7c0.3-0.6,0.5-1.2,0.8-1.7c0.1-0.1,0.2-0.3,0.3-0.3
			c0.1-0.1,0.2,0,0.4,0c0.2-0.5,0.4-1.1,0.6-1.7c0.3-0.6,0.6-1.3,0.9-1.8c0.5-0.8,1.1-1.6,1.8-2.1c0.7-0.6,1.4-0.9,2.1-0.9h0.2
			c0.4,0,0.7,0.1,1,0.3c0.3,0.2,0.6,0.4,0.9,0.7c0.2,0.2,0.3,0.4,0.4,0.6c0.1-0.2,0.2-0.4,0.2-0.6c0.1-0.2,0.1-0.4,0.2-0.5l0,0v0
			c0.1-0.1,0.2-0.3,0.3-0.3c0.1-0.1,0.3-0.1,0.4,0c0.1,0.1,0.3,0.2,0.3,0.3c0.1,0.1,0.1,0.3,0,0.4l0,0v0c-0.1,0.3-0.3,0.7-0.4,1.1
			c-0.2,0.4-0.3,0.9-0.5,1.4c-0.2,0.5-0.4,1-0.6,1.5c-0.2,0.5-0.4,1-0.5,1.4c-0.2,0.6-0.5,1.3-0.7,1.9c-0.2,0.7-0.5,1.4-0.8,2.2
			c-0.2,0.6-0.4,1.1-0.6,1.7c-0.2,0.6-0.4,1.1-0.6,1.7c0.1,0,0.2-0.1,0.3-0.1c0.1,0,0.2-0.1,0.3-0.1c0.6-0.2,1.1-0.5,1.6-0.9
			c0.5-0.4,1-0.8,1.5-1.3c0.5-0.5,1-1.2,1.5-1.9c0.5-0.7,0.9-1.6,1.3-2.6c0-0.1,0.1-0.1,0.1-0.1c0-0.1,0.1-0.3,0.2-0.5
			c0.1-0.3,0.2-0.6,0.4-1.1c0.1-0.4,0.3-0.9,0.5-1.3c0.2-0.5,0.3-0.9,0.5-1.4c0-0.1,0-0.2,0.1-0.3c0-0.1,0.1-0.2,0.1-0.4l0.5-1.3
			c0-0.1,0.1-0.3,0.3-0.3c0.1-0.1,0.3-0.1,0.4,0c0.1,0,0.3,0.1,0.3,0.3c0.1,0.1,0.1,0.3,0,0.4l-0.4,1.3l-0.2,0.7
			c-0.2,0.6-0.4,1.1-0.6,1.5c-0.2,0.5-0.3,0.9-0.4,1.2c-0.1,0.3-0.2,0.7-0.3,0.9s-0.2,0.5-0.2,0.7c-0.1,0.4-0.3,0.8-0.4,1.1
			c-0.1,0.4-0.2,0.7-0.3,1c-0.1,0.3-0.1,0.6-0.2,0.8s-0.1,0.5-0.1,0.6v0.1c0,0.2,0,0.3,0,0.5c0,0.2,0.1,0.3,0.2,0.4
			c0.1,0.2,0.3,0.3,0.6,0.3h0c0.4,0,0.8-0.2,1.2-0.5c0.4-0.3,0.7-0.7,1-1.2c0.4-0.5,0.7-1.1,1-1.7c0.3-0.6,0.5-1.2,0.8-1.7
			c0,0,0.1-0.1,0.1-0.1c0-0.1,0.1-0.3,0.2-0.6c0.1-0.3,0.2-0.6,0.4-1.1c0.1-0.4,0.3-0.9,0.5-1.3c0.2-0.5,0.3-0.9,0.5-1.4
			c0-0.1,0.1-0.2,0.1-0.4c0.1-0.2,0.2-0.5,0.3-0.8h-1.7c-0.2,0-0.3-0.1-0.4-0.2c-0.1-0.1-0.2-0.2-0.2-0.4c0-0.1,0.1-0.3,0.2-0.4
			c0.1-0.1,0.2-0.2,0.4-0.2h2.1c0-0.1,0.1-0.2,0.1-0.3c0-0.1,0.1-0.2,0.1-0.3c0.1-0.4,0.3-0.8,0.4-1.1s0.2-0.7,0.4-1
			c0.1-0.3,0.2-0.6,0.3-0.8c0.1-0.2,0.1-0.4,0.2-0.5c0.1-0.1,0.2-0.3,0.3-0.3c0.1-0.1,0.3-0.1,0.4,0c0.1,0.1,0.3,0.2,0.3,0.3
			c0.1,0.1,0.1,0.3,0,0.4c0,0.1-0.1,0.3-0.2,0.5c-0.1,0.2-0.2,0.5-0.3,0.8c-0.1,0.3-0.2,0.7-0.4,1c-0.1,0.4-0.3,0.8-0.4,1.2
			c0,0,0,0.1,0,0.1c0,0,0,0.1,0,0.1h1.8c0.2,0,0.3,0.1,0.4,0.2c0.1,0.1,0.2,0.3,0.2,0.4c0,0.2-0.1,0.3-0.2,0.4
			c-0.1,0.1-0.2,0.2-0.4,0.2h-2.3c-0.1,0.4-0.2,0.7-0.3,1s-0.2,0.5-0.2,0.6c-0.2,0.6-0.4,1.1-0.6,1.5c-0.2,0.5-0.3,0.9-0.4,1.2
			c-0.1,0.3-0.2,0.7-0.3,0.9c-0.1,0.3-0.2,0.5-0.2,0.7c-0.1,0.4-0.3,0.8-0.4,1.1c-0.1,0.4-0.2,0.7-0.3,1c-0.1,0.3-0.1,0.6-0.2,0.8
			c0,0.2-0.1,0.5-0.1,0.6v0.1c0,0.4,0.1,0.7,0.3,0.9c0.1,0.2,0.3,0.2,0.6,0.2h0c0.2,0,0.5,0,0.8-0.1c0.3-0.1,0.5-0.2,0.7-0.4
			c0.3-0.2,0.5-0.4,0.7-0.7c0.2-0.3,0.5-0.6,0.7-1c0.3-0.4,0.5-0.8,0.8-1.3c0.3-0.5,0.5-1,0.8-1.7c0,0,0,0,0.1-0.1c0,0,0,0,0,0
			c0.2-0.6,0.4-1.3,0.7-1.9s0.6-1.3,0.9-1.8c0.5-0.8,1.1-1.6,1.7-2.1c0.6-0.6,1.4-0.9,2.2-0.9h0.2c0.4,0,0.7,0.1,1,0.3
			c0.3,0.2,0.6,0.4,0.9,0.7c0.1,0.2,0.2,0.3,0.4,0.6c0.1-0.2,0.2-0.5,0.2-0.7c0.1-0.2,0.1-0.4,0.2-0.6c0.1-0.1,0.2-0.3,0.3-0.3
			c0.1-0.1,0.3-0.1,0.4,0c0.1,0.1,0.3,0.2,0.3,0.3c0.1,0.1,0.1,0.3,0,0.4c-0.1,0.4-0.3,0.9-0.6,1.6c-0.2,0.7-0.5,1.4-0.8,2.1
			c-0.2,0.5-0.4,1-0.5,1.5c-0.2,0.5-0.3,0.9-0.5,1.3c-0.3,0.8-0.5,1.5-0.6,2.1c-0.1,0.3-0.2,0.6-0.2,0.8s-0.1,0.5-0.1,0.6v0.1
			c0,0.2,0,0.3,0,0.5c0,0.2,0.1,0.3,0.2,0.4c0.1,0.2,0.3,0.3,0.6,0.3c0.4,0,0.8-0.2,1.2-0.5c0.4-0.3,0.7-0.7,1.1-1.2s0.6-1,0.9-1.6
			c0.3-0.6,0.5-1.1,0.8-1.7l0-0.1c0-0.1,0.1-0.1,0.1-0.2c0.4-1.1,0.7-2.1,1.1-3.2c0.4-1.1,0.8-2.3,1.2-3.4l0.6-1.8l0.2-0.5
			c0.1-0.2,0.2-0.5,0.3-0.9c0.1-0.3,0.2-0.7,0.4-1.1c0.1-0.1,0.2-0.3,0.3-0.3c0.1-0.1,0.3-0.1,0.4,0c0.1,0.1,0.3,0.2,0.3,0.3
			c0.1,0.1,0.1,0.3,0,0.4c-0.1,0.4-0.3,0.7-0.4,1.1c-0.1,0.3-0.2,0.6-0.3,0.9c0,0.1-0.1,0.2-0.1,0.2c0,0.1,0,0.2-0.1,0.2l-0.6,1.8
			c-0.4,1.1-0.8,2.2-1.2,3.3c-0.4,1.1-0.8,2.3-1.2,3.4c-0.1,0.4-0.2,0.8-0.3,1.1s-0.2,0.7-0.3,1c-0.1,0.3-0.2,0.6-0.2,0.8
			c0,0.2-0.1,0.5-0.1,0.6v0.1c0,0.4,0.1,0.7,0.3,0.9c0.1,0.2,0.3,0.2,0.6,0.2h0c0.2,0,0.5,0,0.8-0.1c0.3-0.1,0.5-0.2,0.7-0.4
			c0.3-0.2,0.5-0.4,0.7-0.7c0.2-0.3,0.5-0.6,0.7-1c0.3-0.4,0.5-0.8,0.8-1.3c0.3-0.5,0.5-1,0.8-1.7c0.1-0.1,0.2-0.2,0.3-0.3
			c0.2-0.1,0.3,0,0.5,0c0.1,0.1,0.2,0.2,0.3,0.3C286.8,216.7,286.8,216.8,286.7,217z M248.8,225.2c-0.2,0-0.5,0.1-0.8,0.2
			c-0.5,0.1-1,0.2-1.4,0.3s-0.8,0.2-1.2,0.4c-0.3,0.2-0.6,0.4-0.8,0.6c-0.2,0.2-0.3,0.6-0.4,0.9v0.2c0,0.4,0.2,0.7,0.4,1
			c0.3,0.3,0.7,0.5,1.2,0.6c0.1,0,0.1,0,0.2,0s0.2,0,0.2,0c0.4,0,0.8-0.1,1.1-0.4c0.3-0.2,0.6-0.5,0.8-0.8c0.3-0.4,0.5-0.8,0.7-1.3
			c0.2-0.5,0.4-1,0.6-1.5l0.1-0.3C249.3,225.1,249.1,225.2,248.8,225.2z M235.7,214.6c0.1-0.3,0.2-0.6,0.3-0.8
			c0.1-0.3,0.2-0.5,0.3-0.7c0-0.1,0-0.1,0-0.2c0-0.7-0.2-1.2-0.5-1.5c-0.3-0.3-0.7-0.5-1.1-0.6c0,0-0.1,0-0.2,0
			c-0.5,0-1,0.3-1.5,0.7c-0.5,0.5-0.9,1-1.4,1.7c-0.3,0.5-0.6,1.1-0.8,1.7c-0.2,0.6-0.5,1.2-0.6,1.7c-0.2,0.6-0.3,1.1-0.4,1.6
			c-0.1,0.5-0.2,0.9-0.2,1.3c0,0.7,0.1,1.2,0.3,1.5c0.2,0.3,0.4,0.4,0.8,0.4c0.6,0,1.1-0.2,1.6-0.6c0.5-0.5,0.9-1,1.4-1.7
			s0.8-1.4,1.1-2.3C235.1,216.1,235.4,215.3,235.7,214.6z M252.2,216.9c0.3-0.8,0.7-1.6,0.9-2.3c0.2-0.6,0.5-1.1,0.6-1.6v-0.2
			c0-0.6-0.2-1.1-0.5-1.5c-0.3-0.3-0.6-0.5-1.1-0.6c0,0-0.1,0-0.1,0c-0.5,0-1,0.3-1.5,0.7c-0.5,0.5-0.9,1-1.4,1.7
			c-0.3,0.5-0.6,1.1-0.8,1.7c-0.2,0.6-0.5,1.2-0.6,1.7c-0.2,0.6-0.3,1.1-0.4,1.6c-0.1,0.5-0.2,0.9-0.2,1.3c0,0.7,0.1,1.2,0.3,1.5
			c0.2,0.3,0.4,0.4,0.8,0.4c0.6,0,1.1-0.2,1.5-0.6c0.5-0.4,0.9-1,1.3-1.7C251.5,218.5,251.9,217.8,252.2,216.9z M275.4,214.6
			c0.1-0.3,0.2-0.6,0.3-0.8c0.1-0.3,0.2-0.5,0.3-0.7c0-0.1,0-0.1,0-0.2c0-0.7-0.2-1.2-0.5-1.5c-0.3-0.3-0.7-0.5-1.1-0.6
			c0,0-0.1,0-0.2,0c-0.5,0-1,0.3-1.5,0.7c-0.5,0.5-0.9,1-1.4,1.7c-0.3,0.5-0.6,1.1-0.8,1.7c-0.2,0.6-0.5,1.2-0.6,1.7
			c-0.2,0.6-0.3,1.1-0.4,1.6c-0.1,0.5-0.2,0.9-0.2,1.3c0,0.7,0.1,1.2,0.3,1.5c0.2,0.3,0.4,0.4,0.8,0.4c0.6,0,1.1-0.2,1.6-0.6
			c0.5-0.5,0.9-1,1.4-1.7c0.4-0.7,0.8-1.4,1.1-2.3C274.8,216.1,275.1,215.3,275.4,214.6z M262,208.3c-0.3,0-0.5-0.1-0.7-0.3
			c-0.2-0.2-0.3-0.4-0.3-0.7c0-0.3,0.1-0.5,0.3-0.7c0.2-0.2,0.4-0.3,0.7-0.3c0.3,0,0.5,0.1,0.7,0.3c0.2,0.2,0.3,0.4,0.3,0.7
			c0,0.3-0.1,0.5-0.3,0.7C262.4,208.2,262.2,208.3,262,208.3z M244.9,208.3c-0.3,0-0.5-0.1-0.7-0.3c-0.2-0.2-0.3-0.4-0.3-0.7
			c0-0.3,0.1-0.5,0.3-0.7c0.2-0.2,0.4-0.3,0.7-0.3c0.3,0,0.5,0.1,0.7,0.3c0.2,0.2,0.3,0.4,0.3,0.7c0,0.3-0.1,0.5-0.3,0.7
			C245.4,208.2,245.2,208.3,244.9,208.3z M224.4,217c-0.3,0.6-0.5,1.2-0.9,1.9c-0.3,0.7-0.7,1.3-1.1,1.8c-0.4,0.6-0.9,1-1.4,1.4
			c-0.5,0.4-1.1,0.6-1.7,0.6h0c-0.4,0-0.7-0.1-0.9-0.2c-0.3-0.1-0.5-0.3-0.6-0.6c-0.1-0.2-0.2-0.5-0.3-0.7c-0.1-0.3-0.1-0.5-0.1-0.8
			v-0.1c0-0.4,0.1-1,0.3-1.7c0.1-0.3,0.2-0.7,0.3-1c0.1-0.4,0.2-0.7,0.4-1.1c0.1-0.4,0.2-0.7,0.3-0.9c0.1-0.2,0.1-0.5,0.2-0.6
			c0.1-0.3,0.2-0.5,0.2-0.7c0.1-0.2,0.2-0.5,0.3-0.7l-0.4-0.1c-0.4-0.1-0.8-0.3-1.3-0.4c-0.4-0.1-0.9-0.3-1.3-0.5
			c0,0.1-0.1,0.3-0.1,0.4c-0.1,0.1-0.1,0.2-0.1,0.3v0l-2.2,4.8c0,0.1-0.1,0.1-0.1,0.2c-0.4,0.7-0.8,1.2-1.2,1.7
			c-0.6,0.7-1.3,1.3-2,1.8c-0.7,0.4-1.4,0.7-2.1,0.9c-0.7,0.2-1.4,0.2-2.1,0.2h-0.1h0c-0.5,0-1-0.1-1.4-0.3
			c-0.4-0.1-0.8-0.4-1.1-0.7c-0.3-0.3-0.6-0.7-0.8-1.2c-0.1-0.2-0.1-0.4-0.2-0.7c-0.1,0.2-0.3,0.4-0.4,0.6c-0.4,0.6-0.9,1.1-1.4,1.6
			c-0.5,0.4-1.1,0.6-1.8,0.6h0c-0.4,0-0.7-0.1-0.9-0.2c-0.3-0.1-0.5-0.3-0.6-0.6c-0.1-0.2-0.2-0.5-0.3-0.7c-0.1-0.2-0.1-0.5-0.1-0.7
			c-0.5,0.7-1,1.2-1.5,1.6c-0.3,0.2-0.7,0.4-1,0.5c-0.4,0.1-0.8,0.2-1.2,0.2h0c-0.3,0-0.5-0.1-0.8-0.2c-0.2-0.1-0.5-0.3-0.6-0.5
			c-0.4-0.4-0.6-1-0.6-1.7v0v-0.1c0-0.1,0-0.2,0-0.3c-0.6,0.6-1.2,1.2-1.8,1.6c-0.7,0.4-1.4,0.7-2.1,0.9c-0.7,0.2-1.4,0.2-2.1,0.2
			h-0.1h0c-0.5,0-1-0.1-1.4-0.3c-0.4-0.1-0.8-0.4-1.1-0.7c-0.3-0.3-0.6-0.7-0.8-1.2c-0.1-0.2-0.2-0.5-0.2-0.8
			c-0.1,0.1-0.1,0.2-0.2,0.3c-0.6,0.9-1.2,1.5-1.8,2c-0.3,0.2-0.7,0.4-1,0.5c-0.4,0.1-0.8,0.2-1.2,0.2h0c-0.3,0-0.5-0.1-0.8-0.2
			c-0.2-0.1-0.5-0.3-0.6-0.5c-0.4-0.4-0.6-1-0.6-1.7v0v-0.1c0-0.2,0-0.3,0-0.5c-0.2,0.3-0.4,0.6-0.6,0.9c-0.4,0.6-0.9,1-1.4,1.4
			c-0.5,0.4-1.1,0.6-1.7,0.6h0c-0.4,0-0.7-0.1-0.9-0.2c-0.3-0.1-0.5-0.3-0.6-0.6c-0.1-0.2-0.2-0.5-0.3-0.7c-0.1-0.3-0.1-0.5-0.1-0.8
			v0c-0.5,0.7-1,1.2-1.6,1.7c-0.6,0.4-1.2,0.6-1.9,0.6c-0.8,0-1.3-0.3-1.7-0.9c-0.2-0.3-0.3-0.6-0.4-1c-0.1-0.4-0.1-0.8-0.1-1.2
			c0-0.4,0.1-0.9,0.2-1.4c0.1-0.6,0.3-1.1,0.4-1.8c0.2-0.6,0.4-1.3,0.7-1.9s0.6-1.3,0.9-1.8c0.5-0.8,1.1-1.6,1.7-2.1
			c0.6-0.6,1.4-0.9,2.2-0.9h0.2c0.4,0,0.7,0.1,1,0.3c0.3,0.2,0.6,0.4,0.9,0.7c0.1,0.2,0.2,0.3,0.4,0.6c0.1-0.2,0.2-0.5,0.2-0.7
			c0.1-0.2,0.1-0.4,0.2-0.6c0.1-0.1,0.2-0.3,0.3-0.3c0.1-0.1,0.3-0.1,0.4,0c0.1,0.1,0.3,0.2,0.3,0.3c0.1,0.1,0.1,0.3,0,0.4
			c-0.1,0.4-0.3,0.9-0.6,1.6c-0.2,0.7-0.5,1.4-0.8,2.1c-0.2,0.5-0.4,1-0.5,1.5c-0.2,0.5-0.3,0.9-0.5,1.3c-0.3,0.8-0.5,1.5-0.6,2.1
			c-0.1,0.3-0.2,0.6-0.2,0.8c0,0.2-0.1,0.5-0.1,0.6v0.1c0,0.2,0,0.3,0,0.5c0,0.2,0.1,0.3,0.2,0.4c0.1,0.2,0.3,0.3,0.6,0.3
			c0.4,0,0.8-0.2,1.2-0.5c0.4-0.3,0.7-0.7,1.1-1.2c0.3-0.5,0.6-1,0.9-1.6c0.3-0.6,0.5-1.1,0.8-1.7l0-0.1c0.1-0.1,0.2-0.3,0.3-0.3
			c0.1-0.1,0.2,0,0.4,0c0-0.1,0.1-0.2,0.1-0.4c0.1-0.3,0.2-0.6,0.4-1.1c0.1-0.4,0.3-0.9,0.5-1.3c0.2-0.5,0.3-0.9,0.5-1.4
			c0-0.1,0.1-0.2,0.1-0.4c0.1-0.2,0.2-0.5,0.3-0.8h-1.7c-0.2,0-0.3-0.1-0.4-0.2c-0.1-0.1-0.2-0.2-0.2-0.4c0-0.1,0.1-0.3,0.2-0.4
			c0.1-0.1,0.2-0.2,0.4-0.2h2.1c0-0.1,0.1-0.2,0.1-0.3c0-0.1,0.1-0.2,0.1-0.3c0.1-0.4,0.3-0.8,0.4-1.1c0.1-0.4,0.2-0.7,0.4-1
			c0.1-0.3,0.2-0.6,0.3-0.8c0.1-0.2,0.1-0.4,0.2-0.5c0.1-0.1,0.2-0.3,0.3-0.3c0.1-0.1,0.3-0.1,0.4,0c0.1,0.1,0.3,0.2,0.3,0.3
			c0.1,0.1,0.1,0.3,0,0.4c0,0.1-0.1,0.3-0.2,0.5c-0.1,0.2-0.2,0.5-0.3,0.8c-0.1,0.3-0.2,0.7-0.4,1c-0.1,0.4-0.3,0.8-0.4,1.2
			c0,0,0,0.1,0,0.1c0,0,0,0.1,0,0.1h1.8c0.2,0,0.3,0.1,0.4,0.2c0.1,0.1,0.2,0.3,0.2,0.4c0,0.2-0.1,0.3-0.2,0.4
			c-0.1,0.1-0.2,0.2-0.4,0.2h-2.3c-0.1,0.4-0.2,0.7-0.3,1s-0.2,0.5-0.2,0.6c-0.2,0.6-0.4,1.1-0.6,1.5c-0.2,0.5-0.3,0.9-0.4,1.2
			c-0.1,0.3-0.2,0.7-0.3,0.9c-0.1,0.3-0.2,0.5-0.2,0.7c-0.1,0.4-0.3,0.8-0.4,1.1c-0.1,0.4-0.2,0.7-0.3,1c-0.1,0.3-0.1,0.6-0.2,0.8
			c0,0.2-0.1,0.5-0.1,0.6v0.1c0,0.4,0.1,0.7,0.3,0.9c0.1,0.2,0.3,0.2,0.6,0.2h0c0.2,0,0.5,0,0.8-0.1c0.3-0.1,0.5-0.2,0.7-0.4
			c0.3-0.2,0.5-0.4,0.7-0.7s0.5-0.6,0.7-1c0.3-0.4,0.5-0.8,0.8-1.3c0.2-0.5,0.5-1,0.7-1.5c0,0,0,0,0,0c0,0,0,0,0,0c0,0,0,0,0,0
			c0.2-0.6,0.4-1.2,0.7-1.8c0.3-0.7,0.7-1.4,1.1-2s0.8-1.2,1.3-1.7c0.4-0.4,0.9-0.7,1.4-1c0.5-0.3,1-0.4,1.5-0.4
			c0.6,0,1.1,0.1,1.5,0.4c0.4,0.3,0.7,0.6,0.8,1.2c0.1,0.2,0.1,0.4,0.1,0.7c0,0.2-0.1,0.5-0.1,0.7c-0.1,0.4-0.3,0.7-0.5,1.1
			c-0.2,0.3-0.5,0.6-0.8,0.9c-0.4,0.3-0.8,0.6-1.2,0.8c-0.4,0.2-0.9,0.5-1.3,0.7c-0.6,0.3-1.3,0.5-1.8,0.7c-0.6,0.2-1,0.3-1.4,0.4
			c-0.1,0.3-0.2,0.6-0.2,0.9c0,0.3-0.1,0.6-0.1,0.9v0.1c0,0.9,0.2,1.5,0.7,1.9c0.2,0.2,0.5,0.4,0.8,0.5c0.3,0.1,0.6,0.2,1,0.2h0.1
			c0.6,0,1.2,0,1.8-0.2s1.2-0.4,1.8-0.8c0.6-0.4,1.2-0.9,1.7-1.6c0.6-0.7,1.1-1.5,1.5-2.6c0-0.1,0.1-0.1,0.1-0.2
			c0.4-1.1,0.7-2.1,1.1-3.2c0.4-1.1,0.8-2.3,1.2-3.4l0.6-1.8l0.2-0.5c0.1-0.2,0.2-0.5,0.3-0.9c0.1-0.3,0.2-0.7,0.4-1.1
			c0.1-0.1,0.2-0.3,0.3-0.3c0.1-0.1,0.3-0.1,0.4,0c0.1,0.1,0.3,0.2,0.3,0.3c0.1,0.1,0.1,0.3,0,0.4c-0.1,0.4-0.3,0.7-0.4,1.1
			c-0.1,0.3-0.2,0.6-0.3,0.9c0,0.1-0.1,0.2-0.1,0.2c0,0.1,0,0.2-0.1,0.2l-0.6,1.8c-0.4,1.1-0.8,2.2-1.2,3.3
			c-0.4,1.1-0.8,2.3-1.2,3.4c-0.1,0.4-0.2,0.8-0.3,1.1c-0.1,0.4-0.2,0.7-0.3,1c-0.1,0.3-0.2,0.6-0.2,0.8c0,0.2-0.1,0.5-0.1,0.6v0.1
			c0,0.4,0.1,0.7,0.3,0.9c0.1,0.2,0.3,0.2,0.6,0.2h0c0.2,0,0.5,0,0.8-0.1c0.3-0.1,0.5-0.2,0.7-0.4c0.3-0.2,0.5-0.4,0.7-0.7
			c0.2-0.3,0.5-0.6,0.7-1c0.3-0.4,0.5-0.8,0.8-1.3c0.3-0.5,0.5-1,0.8-1.7c0,0,0.1-0.1,0.1-0.1c0-0.1,0.1-0.3,0.2-0.5
			c0.1-0.3,0.2-0.6,0.4-1.1c0.1-0.4,0.3-0.9,0.5-1.3c0.2-0.5,0.3-0.9,0.5-1.4c0-0.1,0-0.2,0.1-0.3c0-0.1,0.1-0.2,0.1-0.4l0.5-1.3
			c0-0.1,0.1-0.3,0.3-0.3c0.1-0.1,0.3-0.1,0.4,0c0.1,0,0.3,0.1,0.3,0.3c0.1,0.1,0.1,0.3,0,0.4l-0.4,1.3l-0.2,0.7
			c-0.2,0.6-0.4,1.1-0.6,1.5c-0.2,0.5-0.3,0.9-0.4,1.2c-0.1,0.3-0.2,0.7-0.3,0.9c-0.1,0.3-0.2,0.5-0.2,0.7c-0.1,0.4-0.3,0.8-0.4,1.1
			c-0.1,0.4-0.2,0.7-0.3,1c-0.1,0.3-0.1,0.6-0.2,0.8c0,0.2-0.1,0.5-0.1,0.6v0.1c0,0.2,0,0.3,0,0.5c0,0.2,0.1,0.3,0.2,0.4
			c0.1,0.2,0.3,0.3,0.6,0.3h0c0.4,0,0.8-0.2,1.2-0.5c0.4-0.3,0.7-0.7,1-1.2c0.4-0.5,0.7-1.1,1-1.7c0.3-0.6,0.5-1.1,0.7-1.6
			c0,0,0-0.1,0-0.1c0,0,0,0,0,0s0,0,0,0c0.2-0.6,0.4-1.2,0.7-1.8c0.3-0.7,0.7-1.4,1.1-2s0.8-1.2,1.3-1.7c0.4-0.4,0.9-0.7,1.4-1
			c0.5-0.3,1-0.4,1.5-0.4c0.6,0,1.1,0.1,1.5,0.4c0.4,0.3,0.7,0.6,0.8,1.2c0.1,0.2,0.1,0.4,0.1,0.7c0,0.2-0.1,0.5-0.1,0.7
			c-0.1,0.4-0.3,0.7-0.5,1.1c-0.2,0.3-0.5,0.6-0.8,0.9c-0.4,0.3-0.8,0.6-1.2,0.8c-0.4,0.2-0.9,0.5-1.3,0.7c-0.6,0.3-1.3,0.5-1.8,0.7
			c-0.6,0.2-1,0.3-1.4,0.4c-0.1,0.3-0.2,0.6-0.2,0.9c0,0.3-0.1,0.6-0.1,0.9v0.1c0,0.9,0.2,1.5,0.7,1.9c0.2,0.2,0.5,0.4,0.8,0.5
			c0.3,0.1,0.6,0.2,1,0.2h0.1c0.6,0,1.2,0,1.8-0.2c0.6-0.1,1.2-0.4,1.8-0.8c0.6-0.4,1.2-0.9,1.7-1.6c0.6-0.7,1.1-1.5,1.5-2.6
			c0,0,0,0,0-0.1l1.7-3.8l0.3-0.8c-0.5-0.3-0.8-0.7-1.1-1.1c-0.3-0.4-0.4-0.9-0.3-1.5c0.1-0.4,0.2-0.8,0.5-1c0,0,0,0,0,0
			c0.3-0.3,0.7-0.4,1.1-0.4c0.1,0,0.3,0,0.5,0.1l0,0c0.2,0.1,0.4,0.1,0.5,0.3c0.1,0.1,0.3,0.3,0.4,0.4c0.1,0.3,0.2,0.6,0.2,1
			c0,0.2,0,0.5-0.1,0.8c0,0.1-0.1,0.3-0.1,0.5c-0.1,0.2-0.1,0.3-0.2,0.5c0.4,0.2,0.8,0.4,1.2,0.5c0.4,0.1,0.9,0.3,1.3,0.4
			c0.4,0.1,0.8,0.2,1,0.3c0.1,0.1,0.3,0.2,0.3,0.3c0.1,0.2,0.1,0.3,0,0.5v0c-0.2,0.4-0.3,0.8-0.4,1c-0.1,0.3-0.2,0.6-0.3,0.9
			c-0.1,0.2-0.2,0.4-0.2,0.7c-0.1,0.2-0.2,0.5-0.3,0.9c-0.1,0.4-0.2,0.8-0.4,1.1c-0.1,0.4-0.2,0.7-0.3,1c-0.1,0.3-0.2,0.6-0.2,0.8
			s-0.1,0.5-0.1,0.6v0.1c0,0.2,0,0.3,0,0.5c0,0.2,0.1,0.3,0.2,0.4c0.1,0.1,0.1,0.2,0.2,0.2c0.1,0,0.2,0.1,0.4,0.1
			c0.4,0,0.8-0.2,1.2-0.5c0.4-0.3,0.7-0.7,1.1-1.2c0.3-0.5,0.6-1,0.9-1.6c0.3-0.6,0.5-1.1,0.7-1.7l0-0.1c0.1-0.1,0.2-0.3,0.3-0.3
			c0.1-0.1,0.3-0.1,0.4,0c0.1,0.1,0.3,0.2,0.3,0.3C224.5,216.7,224.5,216.8,224.4,217L224.4,217z M171.5,214.6
			c0.1-0.3,0.2-0.6,0.3-0.8c0.1-0.3,0.2-0.5,0.3-0.7c0-0.1,0-0.1,0-0.2c0-0.7-0.2-1.2-0.5-1.5c-0.3-0.3-0.7-0.5-1.1-0.6
			c0,0-0.1,0-0.2,0c-0.5,0-1,0.3-1.5,0.7c-0.5,0.5-0.9,1-1.4,1.7c-0.3,0.5-0.6,1.1-0.8,1.7c-0.2,0.6-0.5,1.2-0.6,1.7
			c-0.2,0.6-0.3,1.1-0.4,1.6c-0.1,0.5-0.2,0.9-0.2,1.3c0,0.7,0.1,1.2,0.3,1.5c0.2,0.3,0.4,0.4,0.8,0.4c0.6,0,1.1-0.2,1.6-0.6
			s0.9-1,1.4-1.7s0.8-1.4,1.1-2.3C170.9,216.1,171.2,215.3,171.5,214.6z M184.7,215.5c0.4-0.1,0.8-0.3,1.2-0.5
			c0.4-0.2,0.8-0.4,1.2-0.6c0.4-0.2,0.8-0.5,1.1-0.7c0.5-0.4,0.8-0.9,1-1.4c0.1-0.3,0.1-0.6,0.1-0.8c-0.1-0.2-0.2-0.3-0.3-0.4
			c-0.2-0.1-0.5-0.2-0.9-0.2c-0.3,0-0.6,0.1-1,0.2c-0.2,0.1-0.3,0.2-0.5,0.3s-0.3,0.3-0.5,0.4c-0.4,0.4-0.8,0.9-1.2,1.5
			c-0.4,0.6-0.7,1.2-1,1.8c0,0.1-0.1,0.2-0.1,0.3c0,0.1-0.1,0.2-0.1,0.3C184,215.8,184.4,215.6,184.7,215.5z M205.6,215.5
			c0.4-0.1,0.8-0.3,1.2-0.5c0.4-0.2,0.8-0.4,1.2-0.6c0.4-0.2,0.7-0.5,1.1-0.7c0.5-0.4,0.8-0.9,1-1.4c0.1-0.3,0.1-0.6,0.1-0.8
			c-0.1-0.2-0.2-0.3-0.3-0.4c-0.2-0.1-0.5-0.2-0.9-0.2c-0.3,0-0.6,0.1-1,0.2c-0.2,0.1-0.3,0.2-0.5,0.3c-0.2,0.1-0.3,0.3-0.5,0.4
			c-0.4,0.4-0.8,0.9-1.2,1.5c-0.4,0.6-0.7,1.2-1,1.8c0,0.1-0.1,0.2-0.1,0.3c0,0.1-0.1,0.2-0.1,0.3
			C204.9,215.8,205.3,215.6,205.6,215.5z M216,209c-0.1-0.1-0.1-0.1-0.2-0.2h0c0,0-0.1,0-0.1,0c0,0,0,0-0.1,0c-0.1,0-0.2,0-0.3,0.1
			h0c-0.1,0.1-0.1,0.2-0.2,0.4c0,0.3,0,0.5,0.1,0.7c0.1,0.2,0.3,0.4,0.5,0.6c0-0.1,0.1-0.2,0.1-0.3c0-0.1,0.1-0.2,0.1-0.3
			c0.1-0.2,0.1-0.3,0.1-0.5C216,209.3,216,209.1,216,209z M202.1,208.3c-0.3,0-0.5-0.1-0.7-0.3c-0.2-0.2-0.3-0.4-0.3-0.7
			c0-0.3,0.1-0.5,0.3-0.7c0.2-0.2,0.4-0.3,0.7-0.3c0.3,0,0.5,0.1,0.7,0.3c0.2,0.2,0.3,0.4,0.3,0.7c0,0.3-0.1,0.5-0.3,0.7
			C202.6,208.2,202.4,208.3,202.1,208.3z"/>
		<path class="st5" d="M335.7,107.6c-3.9,7.4-8,13-12.3,16.9c-4.2,3.9-9,5.9-14.2,5.9c-4.2,0-7.1-1.3-8.8-4c-0.4-0.9-0.7-1.7-1-2.5
			c-6.1,4.9-11.6,7.5-16.4,7.7h-0.6c-3.8,0-7-1.4-9.5-4.1c-1.4-1.5-2.4-3.2-2.9-5.1c-5.3,4.3-10.6,6.7-15.8,7.1H254h-1.1
			c-3.9,0-6.7-1.3-8.5-4c-1.5-2.1-2-4.8-1.5-8.2c0.4-3.2,1.7-6.9,3.9-11.4c2.4-4.9,3.4-8.3,3.1-10.1c-0.4-1.9-2.2-3.9-5.4-6
			c-1,2.2-2.2,4.9-3.7,8.2c0,0.1-0.1,0.2-0.1,0.3c0,0.1,0,0.1,0,0.2c-7.4,19.4-11.3,21-25.7,18.7c-1.5,1.7-3.4,3.5-5.6,5.4
			c-5.1,4.1-9.7,6.6-13.8,7.5c-1.5,0.2-2.5,0.2-3,0.2c-3.4,0-6.1-1.2-8.2-3.5c-1.1-1.2-1.9-2.6-2.5-4.2c-1.6,1.9-3.3,3.6-5.3,5.2
			c-6.4,5.3-13,8.5-19.7,9.6c-1.6,0.2-3.2,0.4-4.9,0.4c-7,0-13.3-2.3-18.9-7c-6.7-5.6-10-14.3-9.7-26.2c0.2-11,3.4-22.5,9.3-34.5
			c6-12.2,13.5-21.6,22.5-28.3c6.8-5.1,13-8.2,18.4-9.4c3.1-0.5,5.6-0.5,7.7-0.1c2.6,0.7,4.7,1.8,6.2,3.5c3.7,3.8,4.6,9.5,2.6,17
			c-1.7,6.7-5.6,13.7-11.7,21.2c-0.8,0.9-1.8,1.4-3.1,1.6c-1.2,0.1-2.3-0.2-3.2-0.9c-1-0.8-1.6-1.9-1.7-3.1
			c-0.1-1.2,0.2-2.3,1.1-3.2c5.2-6.4,8.6-12.4,10-17.9c1.2-4.2,1.1-7-0.5-8.6c-1.1-1.2-2.9-1.4-5.6-0.7c-4.1,0.7-9.1,3.2-15.1,7.7
			c-7.6,5.7-14.2,13.9-19.7,24.7c-5.5,10.8-8.3,21.2-8.6,31.3c-0.2,9,2,15.4,6.5,19.1c5.1,4.2,10.7,5.7,16.8,4.7
			c5.2-0.9,10.5-3.6,15.8-8c5.3-4.4,8.7-10.2,13.1-17.4c0.1-0.2,0.3-0.5,0.4-0.7c2-3.9,4.8-7.6,8.3-11c0.9-0.9,2-1.3,3.2-1.2
			c1.1-2.7,2.7-5.1,5-7c5.1-4.6,10-6.1,14.8-4.6c4.5,1.6,7.3,5.2,8.3,11c0.9,5,0.1,10.4-2.4,16.1c-0.3,0.8-0.6,1.5-0.9,1.9
			c4.8,0.6,5.7-2.5,7.7-5.4c2.8-5.3,5.5-11.5,8.5-18.3c-0.4-0.7-0.7-1.3-1-2c-0.9-2.4-0.7-4.7,0.5-7c0.8-1.6,2-2.7,3.6-3.3
			c1.6-0.6,3.1-0.6,4.5,0.1c2.4,1.1,3.5,3.2,3.4,6.5c0,0.6-0.2,1.6-0.5,3.1c6.3,3.8,9.9,8.1,10.7,12.7c0.7,3.7-0.7,8.8-3.9,15.6
			c-5.7,12-1.1,11.7-1.1,11.7c3.2-0.2,6.9-2.7,10.9-6c3.5-2.8,6.5-6.1,9.1-10c1.2-2.1,2.5-4.2,4.2-6.5c4.4-5.7,8.9-10.3,13.5-13.6
			c3.8-2.7,7.8-4.4,12-5.1c4.2-0.6,7.7,0,10.6,1.8c3.9,2.5,5.4,6.3,4.4,11.4c-0.2,1.1-0.7,2-1.6,2.6c-0.9,0.7-1.8,1-2.9,0.9
			c1.1,0.5,1.9,1.2,2.5,2.2c1.2,2.6-0.1,6.3-3.9,11.1c-0.4,0.6-1.3,1.6-2.6,3.1c-0.1,0.2-0.3,0.9-0.7,1.8c-0.4,1-0.6,1.7-0.8,2.2
			c-0.8,2.8,0.1,3.8,0.9,4c5.9,1.7,12.4-6,18.7-18c0.6-1.1,1.5-1.8,2.6-2.2c1.2-0.4,2.3-0.3,3.4,0.3c1.1,0.6,1.8,1.5,2.2,2.6
			C336.4,105.4,336.3,106.5,335.7,107.6z M195.8,101.6c-2.5,3.2-4.3,6.7-5.4,10.5c-1.1,4.2-1,7.1,0.4,8.7c0.8,0.4,1.8,0.5,2.9,0.4
			c2.7-0.6,6-2.5,10-5.6c0.2-0.2,0.6-0.5,1.1-0.9c0.5-0.4,0.8-0.7,0.9-0.9C200.6,110.8,197.3,106.7,195.8,101.6z M215.8,91.3
			c-0.4-2.3-1.2-3.7-2.5-4.1c-0.2-0.1-0.4-0.1-0.7-0.1c-1.4,0-3.2,1-5.4,2.9c-2.9,2.7-3.9,5.6-2.9,8.9c0.9,3.5,3.3,6.2,7.2,8.2
			C215.2,101.3,216.6,96.1,215.8,91.3z M311.9,96.8h0.4c-2.2-0.9-3.2-2.6-2.7-5c0.2-1.2,0.1-2-0.5-2.1c-0.7-0.4-1.6-0.6-2.7-0.6
			c-3.2,0-6.5,1.2-9.8,3.6c-3.9,2.8-7.8,6.8-11.8,11.9c-0.7,0.9-1.3,1.7-1.8,2.5c-0.1,0.4-0.3,0.7-0.5,1c-0.6,1.1-1.3,2.2-2.1,3.2
			c-1.2,2.3-1.9,4.5-2.1,6.4c-0.1,1.6,0.2,2.8,1,3.7c0.8,0.9,1.9,1.3,3.2,1.2c5-0.2,11.5-4.9,19.7-14c0.2-0.2,0.4-0.6,0.6-1.1
			c0.2-0.5,0.4-0.8,0.4-1.1l0.7-1.6c1-2.2,1.9-4,2.9-5.1C308.4,97.8,310.1,96.8,311.9,96.8z"/>
		<path class="st6" d="z"/>
	</g>
</g>
</svg>
