<svg xmlns="http://www.w3.org/2000/svg" xmlns:xlink="http://www.w3.org/1999/xlink" preserveAspectRatio="xMidYMid" width="220" height="232" viewBox="0 0 220 232">
  <defs>
    <style>
      .cls-1 {
        stroke: #e05e62;
        stroke-width: 2px;
        filter: url(#drop-shadow-1);
        fill: none;
      }

      .cls-2 {
        fill: #e05e62;
        fill-rule: evenodd;
      }
    </style>

    <filter id="drop-shadow-1" filterUnits="userSpaceOnUse">
      <feOffset dy="12" in="SourceAlpha"/>
      <feGaussianBlur result="dropBlur"/>
      <feFlood flood-opacity="0.02"/>
      <feComposite operator="in" in2="dropBlur" result="dropShadowComp"/>
      <feComposite in="SourceGraphic" result="shadowed"/>
    </filter>
  </defs>
  <g>
    <g style="fill: none; filter: url(#drop-shadow-1)">
      <circle cx="110" cy="110" r="109" id="circle-1" style="stroke: inherit; filter: none; fill: inherit" class="cls-1"/>
    </g>
    <use xlink:href="#circle-1" style="stroke: #e05e62; filter: none; fill: none"/>
    <path d="M132.477,188.493 C131.724,189.918 130.932,190.998 130.101,191.733 C129.285,192.485 128.373,192.861 127.365,192.861 C126.564,192.861 125.997,192.605 125.661,192.093 C125.580,191.917 125.517,191.757 125.469,191.613 C124.284,192.557 123.228,193.053 122.301,193.101 L122.181,193.101 C121.444,193.101 120.837,192.837 120.357,192.309 C120.086,192.013 119.906,191.683 119.805,191.325 C119.805,191.325 119.805,191.325 119.805,191.325 C118.781,192.157 117.765,192.613 116.757,192.693 L116.733,192.693 L116.517,192.693 C115.764,192.693 115.221,192.437 114.885,191.925 C114.597,191.526 114.501,190.998 114.597,190.341 C114.677,189.733 114.924,189.006 115.341,188.157 C115.805,187.213 116.004,186.565 115.941,186.213 C115.860,185.845 115.517,185.461 114.909,185.061 C114.717,185.478 114.477,186.006 114.189,186.645 C113.901,187.285 113.657,187.821 113.457,188.253 C113.256,188.685 113.148,188.917 113.133,188.949 C113.021,189.157 112.853,189.301 112.629,189.381 C112.404,189.462 112.188,189.453 111.981,189.357 C111.969,189.352 111.962,189.341 111.950,189.335 C111.564,189.648 111.144,189.901 110.685,190.077 C110.077,190.317 109.421,190.398 108.717,190.317 C108.429,190.638 108.069,190.981 107.637,191.349 C106.661,192.133 105.773,192.613 104.973,192.789 C104.685,192.821 104.493,192.837 104.397,192.837 C103.741,192.837 103.213,192.613 102.813,192.165 C102.520,191.845 102.347,191.447 102.254,190.996 C101.803,191.495 101.337,191.958 100.845,192.357 C99.613,193.381 98.349,193.997 97.053,194.205 C96.749,194.253 96.437,194.277 96.117,194.277 C94.773,194.277 93.557,193.829 92.469,192.933 C91.173,191.861 90.549,190.182 90.597,187.893 C90.645,185.781 91.245,183.573 92.397,181.269 C93.549,178.933 94.997,177.117 96.741,175.821 C98.053,174.846 99.237,174.246 100.293,174.021 C100.885,173.925 101.381,173.917 101.781,173.997 C102.277,174.126 102.677,174.349 102.981,174.669 C103.701,175.405 103.869,176.493 103.485,177.933 C103.149,179.214 102.397,180.573 101.229,182.013 C101.069,182.190 100.873,182.289 100.641,182.313 C100.409,182.337 100.205,182.277 100.029,182.133 C99.837,181.974 99.729,181.777 99.705,181.545 C99.681,181.314 99.749,181.110 99.909,180.933 C100.917,179.701 101.557,178.557 101.829,177.501 C102.069,176.701 102.037,176.149 101.733,175.845 C101.525,175.621 101.165,175.573 100.653,175.701 C99.869,175.830 98.901,176.325 97.749,177.189 C96.277,178.278 95.013,179.857 93.957,181.929 C92.901,184.002 92.349,186.006 92.301,187.941 C92.269,189.669 92.685,190.893 93.549,191.613 C94.525,192.413 95.605,192.717 96.789,192.525 C97.797,192.349 98.813,191.837 99.837,190.989 C100.861,190.141 101.797,189.030 102.645,187.653 C102.737,187.482 102.880,187.375 103.054,187.307 C103.430,186.634 103.909,186.002 104.517,185.421 C104.693,185.245 104.901,185.166 105.141,185.181 C105.349,184.653 105.669,184.206 106.101,183.837 C107.077,182.958 108.029,182.661 108.957,182.949 C109.821,183.253 110.357,183.957 110.565,185.061 C110.741,186.021 110.589,187.053 110.109,188.157 C110.045,188.317 109.989,188.437 109.941,188.517 C110.533,188.341 111.053,187.957 111.501,187.365 C111.645,187.189 111.833,187.089 112.065,187.065 C112.088,187.063 112.110,187.072 112.133,187.071 C112.499,186.289 112.967,185.252 113.541,183.957 C113.460,183.829 113.397,183.702 113.349,183.573 C113.172,183.109 113.205,182.661 113.445,182.229 C113.604,181.926 113.837,181.713 114.141,181.593 C114.444,181.473 114.732,181.477 115.005,181.605 C115.469,181.813 115.685,182.229 115.653,182.853 C115.653,182.965 115.620,183.165 115.557,183.453 C116.772,184.189 117.461,185.005 117.621,185.901 C117.749,186.606 117.501,187.605 116.877,188.901 C116.381,189.925 116.189,190.614 116.301,190.965 C116.333,190.998 116.436,191.005 116.613,190.989 L116.661,190.989 C117.285,190.957 117.984,190.629 118.761,190.005 C119.492,189.417 120.111,188.699 120.636,187.869 C120.833,187.536 121.056,187.194 121.317,186.837 C122.164,185.733 123.028,184.861 123.909,184.221 C124.644,183.693 125.416,183.369 126.225,183.249 C127.032,183.129 127.716,183.246 128.277,183.597 C129.028,184.077 129.309,184.806 129.117,185.781 C129.084,185.989 128.985,186.157 128.817,186.285 C128.649,186.414 128.460,186.469 128.253,186.453 C128.460,186.549 128.620,186.693 128.733,186.885 C128.956,187.381 128.709,188.094 127.989,189.021 C127.908,189.133 127.740,189.333 127.485,189.621 C127.468,189.669 127.425,189.786 127.353,189.969 C127.281,190.153 127.228,190.293 127.197,190.389 C127.101,190.789 127.068,191.037 127.101,191.133 C127.116,191.149 127.204,191.157 127.365,191.157 C128.548,191.157 129.748,190.005 130.965,187.701 C131.076,187.494 131.244,187.353 131.469,187.281 C131.692,187.209 131.908,187.230 132.117,187.341 C132.324,187.453 132.465,187.621 132.537,187.845 C132.609,188.070 132.588,188.286 132.477,188.493 ZM105.045,187.341 C104.565,187.965 104.221,188.637 104.013,189.357 C103.805,190.158 103.829,190.717 104.085,191.037 C104.245,191.118 104.429,191.142 104.637,191.109 C105.149,190.998 105.789,190.638 106.557,190.029 C106.605,189.997 106.673,189.942 106.761,189.861 C106.849,189.781 106.909,189.726 106.941,189.693 C105.965,189.102 105.333,188.317 105.045,187.341 ZM108.885,185.349 C108.805,184.902 108.645,184.638 108.405,184.557 C108.373,184.542 108.325,184.533 108.261,184.533 C107.989,184.533 107.645,184.717 107.229,185.085 C106.669,185.598 106.485,186.165 106.677,186.789 C106.853,187.461 107.317,187.989 108.069,188.373 C108.773,187.285 109.045,186.277 108.885,185.349 ZM127.893,186.405 L127.965,186.405 C127.533,186.229 127.356,185.910 127.437,185.445 C127.485,185.205 127.452,185.070 127.341,185.037 C127.212,184.957 127.036,184.917 126.813,184.917 C126.189,184.917 125.556,185.149 124.917,185.613 C124.164,186.157 123.408,186.921 122.649,187.905 C122.502,188.095 122.380,188.274 122.260,188.454 C122.240,188.499 122.233,188.546 122.205,188.589 C122.099,188.768 121.981,188.937 121.866,189.107 C121.608,189.593 121.449,190.040 121.413,190.437 C121.396,190.741 121.461,190.981 121.605,191.157 C121.764,191.334 121.972,191.413 122.229,191.397 C123.189,191.349 124.452,190.453 126.021,188.709 C126.052,188.661 126.088,188.593 126.129,188.505 C126.168,188.418 126.196,188.349 126.213,188.301 L126.357,187.989 C126.549,187.557 126.732,187.230 126.909,187.005 C127.212,186.606 127.540,186.405 127.893,186.405 Z" class="cls-2"/>
    <path d="M116.867,159.584 C116.558,160.309 116.224,160.880 115.867,161.296 C115.510,161.712 115.016,162.011 114.387,162.192 L114.291,161.968 C114.878,161.744 115.336,161.427 115.667,161.016 C115.998,160.605 116.286,160.080 116.531,159.440 L116.771,158.832 L116.611,158.832 C116.526,158.832 116.456,158.790 116.403,158.704 L113.251,151.152 L113.667,151.152 L116.371,157.648 L116.723,158.480 L116.931,158.480 L117.283,157.616 L119.987,151.152 L120.403,151.152 L116.867,159.584 ZM108.611,159.024 C107.694,159.024 106.616,158.859 105.379,158.528 L105.379,147.632 L105.763,147.632 L105.763,151.104 C105.763,151.851 105.747,152.347 105.715,152.592 C106.942,151.504 108.014,150.960 108.931,150.960 C109.934,150.960 110.648,151.267 111.075,151.880 C111.502,152.494 111.715,153.531 111.715,154.992 C111.715,156.443 111.478,157.478 111.003,158.096 C110.528,158.715 109.731,159.024 108.611,159.024 ZM110.771,152.160 C110.408,151.606 109.795,151.328 108.931,151.328 C108.451,151.328 107.974,151.454 107.499,151.704 C107.024,151.955 106.446,152.363 105.763,152.928 L105.763,158.256 C106.734,158.523 107.683,158.656 108.611,158.656 C109.582,158.656 110.275,158.379 110.691,157.824 C111.107,157.270 111.315,156.326 111.315,154.992 C111.315,153.659 111.134,152.715 110.771,152.160 Z" class="cls-2"/>
    <path d="M183.022,123.492 C179.261,128.013 172.742,130.272 163.462,130.272 C154.181,130.272 147.662,128.013 143.902,123.492 C140.141,118.973 138.262,111.153 138.262,100.032 C138.262,88.913 140.141,81.093 143.902,76.572 C147.662,72.053 154.181,69.792 163.462,69.792 C172.742,69.792 179.261,72.053 183.022,76.572 C186.782,81.093 188.662,88.913 188.662,100.032 C188.662,111.153 186.782,118.973 183.022,123.492 ZM180.742,78.552 C177.461,74.553 171.701,72.552 163.462,72.552 C155.222,72.552 149.462,74.553 146.182,78.552 C142.901,82.553 141.262,89.712 141.262,100.032 C141.262,110.352 142.901,117.513 146.182,121.512 C149.462,125.513 155.222,127.512 163.462,127.512 C171.701,127.512 177.461,125.513 180.742,121.512 C184.022,117.513 185.662,110.352 185.662,100.032 C185.662,89.712 184.022,82.553 180.742,78.552 ZM112.164,126.372 C109.962,124.253 108.864,121.272 108.864,117.432 L108.864,44.832 L111.744,44.832 L111.744,117.312 C111.744,120.432 112.584,122.813 114.264,124.452 C115.944,126.093 118.302,126.912 121.344,126.912 L128.304,126.912 L128.664,128.832 C127.062,129.312 124.503,129.552 120.984,129.552 C117.303,129.552 114.363,128.493 112.164,126.372 ZM48.744,123.432 C50.584,125.273 52.944,126.192 55.824,126.192 L90.264,126.192 L90.504,128.352 C82.663,128.673 70.903,128.832 55.224,128.832 C51.703,128.832 48.784,127.673 46.464,125.352 C44.143,123.033 42.984,120.113 42.984,116.592 L42.984,58.272 C42.984,54.753 44.143,51.833 46.464,49.512 C48.784,47.193 51.703,46.032 55.224,46.032 C70.903,46.032 82.663,46.193 90.504,46.512 L90.264,48.672 L55.824,48.672 C52.944,48.672 50.584,49.593 48.744,51.432 C46.903,53.273 45.984,55.632 45.984,58.512 L45.984,83.232 L85.344,83.232 L85.344,85.752 L45.984,85.752 L45.984,116.352 C45.984,119.232 46.903,121.593 48.744,123.432 Z" class="cls-2"/>
  </g>
</svg>
